<svg width="65" height="60" viewBox="0 0 65 60" fill="none" xmlns="http://www.w3.org/2000/svg">
<path d="M30 60C13.4315 60 0 46.5685 0 30C0 13.4315 13.4315 0 30 0C46.5685 0 60 13.4315 60 30C60 46.5685 46.5685 60 30 60Z" fill="#FFDA6A"/>
<g filter="url(#filter0_f_1_3)">
<path d="M47.3333 35.9999C44.3878 35.9999 42 33.6121 42 30.6666C42 27.7211 44.3878 25.3333 47.3333 25.3333C50.2788 25.3333 52.6666 27.7211 52.6666 30.6666C52.6666 33.6121 50.2788 35.9999 47.3333 35.9999Z" fill="#F55065"/>
</g>
<path fill-rule="evenodd" clip-rule="evenodd" d="M37.498 19.1281C38.8633 14.9261 43.3765 12.6264 47.5786 13.9918C51.7806 15.3571 54.0802 19.8703 52.7149 24.0724C52.4873 24.7727 51.7351 25.156 51.0348 24.9284C50.3344 24.7009 49.9512 23.9487 50.1787 23.2483C51.0889 20.447 49.5559 17.4381 46.7545 16.5279C43.9532 15.6177 40.9443 17.1508 40.0341 19.9521C39.8066 20.6525 39.0544 21.0357 38.354 20.8082C37.6537 20.5806 37.2704 19.8284 37.498 19.1281ZM16.1646 12.4614C17.53 8.25939 22.0432 5.95978 26.2452 7.3251C30.4473 8.69043 32.7469 13.2037 31.3815 17.4057C31.154 18.106 30.4018 18.4893 29.7014 18.2617C29.0011 18.0342 28.6178 17.282 28.8454 16.5816C29.7556 13.7803 28.2225 10.7715 25.4212 9.86125C22.6198 8.95104 19.611 10.4841 18.7008 13.2855C18.4732 13.9858 17.721 14.3691 17.0207 14.1415C16.3203 13.914 15.9371 13.1618 16.1646 12.4614ZM43.8596 31.9296C43.0838 33.4812 38.588 35.3437 34.5516 35.499C28.7643 35.7215 23.6502 32.9785 20.1654 26.6425C19.8105 25.9973 20.0459 25.1865 20.6911 24.8316C21.3363 24.4768 22.1471 24.7122 22.502 25.3574C25.4888 30.788 29.6482 33.0189 34.4491 32.8343C36.2423 32.7653 38.0272 32.3462 39.5733 31.7056C40.1935 31.4487 40.7367 31.17 41.14 30.9114C41.3057 30.8051 41.4362 30.7094 41.5211 30.6353C41.5375 30.621 41.5257 30.6344 41.4744 30.737C41.8037 30.0783 42.6046 29.8114 43.2633 30.1407C43.9219 30.47 44.1889 31.2709 43.8596 31.9296Z" fill="black"/>
<defs>
<filter id="filter0_f_1_3" x="30.2353" y="13.5685" width="34.1961" height="34.196" filterUnits="userSpaceOnUse" color-interpolation-filters="sRGB">
<feFlood flood-opacity="0" result="BackgroundImageFix"/>
<feBlend mode="normal" in="SourceGraphic" in2="BackgroundImageFix" result="shape"/>
<feGaussianBlur stdDeviation="5.88235" result="effect1_foregroundBlur_1_3"/>
</filter>
</defs>
</svg>
