<svg width="740" height="681" viewBox="0 0 740 681" fill="none" xmlns="http://www.w3.org/2000/svg">
<rect x="29" y="23" width="492" height="477" rx="20" fill="#F2F2F2"/>
<mask id="mask0_0_5" style="mask-type:alpha" maskUnits="userSpaceOnUse" x="29" y="23" width="492" height="477">
<rect x="29" y="23" width="492" height="477" rx="20" fill="#09BC4D" fill-opacity="0.2"/>
</mask>
<g mask="url(#mask0_0_5)">
<path d="M531 514.5H463.5C488 514.5 416.5 207.5 343.5 181.5C285.1 160.7 211.833 59.8333 182.5 12H63C96 62.5 245 225 288.5 253C323.3 275.4 379 436.667 402.5 514.5H330C309.667 446.333 257.2 303.4 210 277C162.8 250.6 60 119.333 14.5 57C14.5 79.5 14.5 127.3 14.5 138.5C14.5 152.5 123.5 303 163.5 337.5C195.5 365.1 240.5 467 259 514.5H182.5C188.1 489.7 58.8333 282.167 -6.5 181.5L-12 341M531 514.5C532.5 430.667 517.9 246.7 447.5 181.5C359.5 100 288.5 59 288.5 12H402.5C417.667 39.6667 456.3 97.1 489.5 105.5C522.7 113.9 543.667 159.667 550 181.5L531 514.5ZM-12 341C29.6667 381.667 114.2 473.3 119 514.5H33.5L-12 341Z" stroke="#DC2C55" stroke-width="3"/>
</g>
<g filter="url(#filter0_d_0_5)">
<path d="M95 105C95 99.4772 99.4772 95 105 95H340C345.523 95 350 99.4772 350 105V310C350 315.523 345.523 320 340 320H105C99.4772 320 95 315.523 95 310V105Z" fill="white"/>
</g>
<circle cx="222" cy="183" r="37" fill="#DC2C55"/>
<path d="M225.393 194H220.866V181.607C220.866 181.266 220.871 180.846 220.881 180.348C220.891 179.84 220.905 179.322 220.925 178.795C220.944 178.258 220.964 177.774 220.983 177.345C220.876 177.472 220.656 177.691 220.324 178.004C220.002 178.307 219.699 178.58 219.416 178.824L216.955 180.802L214.772 178.077L221.672 172.584H225.393V194Z" fill="white"/>
<path d="M136.854 257.814C136.854 260.066 136.434 261.948 135.596 263.461C134.757 264.965 133.54 266.1 131.945 266.865C130.35 267.622 128.427 268 126.176 268H120.625V248.012H126.777C128.846 248.012 130.633 248.385 132.137 249.133C133.641 249.871 134.803 250.969 135.623 252.428C136.443 253.877 136.854 255.673 136.854 257.814ZM133.436 257.91C133.436 256.27 133.176 254.921 132.656 253.863C132.146 252.806 131.389 252.022 130.387 251.512C129.393 250.992 128.167 250.732 126.709 250.732H123.906V265.252H126.23C128.646 265.252 130.451 264.637 131.645 263.406C132.839 262.176 133.436 260.344 133.436 257.91ZM154.23 260.398C154.23 261.656 154.066 262.773 153.738 263.748C153.41 264.723 152.932 265.548 152.303 266.223C151.674 266.888 150.917 267.398 150.033 267.754C149.149 268.1 148.151 268.273 147.039 268.273C146 268.273 145.048 268.1 144.182 267.754C143.316 267.398 142.564 266.888 141.926 266.223C141.297 265.548 140.809 264.723 140.463 263.748C140.117 262.773 139.943 261.656 139.943 260.398C139.943 258.73 140.23 257.318 140.805 256.16C141.388 254.993 142.217 254.105 143.293 253.494C144.368 252.883 145.649 252.578 147.135 252.578C148.529 252.578 149.76 252.883 150.826 253.494C151.893 254.105 152.727 254.993 153.328 256.16C153.93 257.327 154.23 258.74 154.23 260.398ZM143.252 260.398C143.252 261.501 143.384 262.445 143.648 263.229C143.922 264.012 144.341 264.614 144.906 265.033C145.471 265.443 146.201 265.648 147.094 265.648C147.987 265.648 148.716 265.443 149.281 265.033C149.846 264.614 150.261 264.012 150.525 263.229C150.79 262.445 150.922 261.501 150.922 260.398C150.922 259.296 150.79 258.361 150.525 257.596C150.261 256.821 149.846 256.233 149.281 255.832C148.716 255.422 147.982 255.217 147.08 255.217C145.749 255.217 144.779 255.663 144.168 256.557C143.557 257.45 143.252 258.73 143.252 260.398ZM170.295 267.986L168.381 260.945C168.29 260.599 168.18 260.18 168.053 259.688C167.925 259.195 167.798 258.689 167.67 258.17C167.542 257.641 167.424 257.154 167.314 256.707C167.214 256.26 167.137 255.914 167.082 255.668H166.973C166.927 255.914 166.854 256.26 166.754 256.707C166.654 257.154 166.54 257.641 166.412 258.17C166.285 258.699 166.157 259.214 166.029 259.715C165.911 260.216 165.801 260.645 165.701 261L163.691 267.986H160.164L155.926 252.852H159.18L161.148 260.371C161.276 260.882 161.399 261.433 161.518 262.025C161.645 262.618 161.755 263.183 161.846 263.721C161.937 264.258 162.005 264.701 162.051 265.047H162.16C162.197 264.801 162.247 264.491 162.311 264.117C162.374 263.734 162.447 263.338 162.529 262.928C162.611 262.508 162.693 262.117 162.775 261.752C162.857 261.378 162.935 261.077 163.008 260.85L165.332 252.852H168.846L171.074 260.85C171.174 261.196 171.284 261.633 171.402 262.162C171.521 262.682 171.626 263.206 171.717 263.734C171.817 264.254 171.881 264.687 171.908 265.033H172.018C172.054 264.723 172.118 264.304 172.209 263.775C172.309 263.238 172.423 262.668 172.551 262.066C172.678 261.456 172.811 260.891 172.947 260.371L174.957 252.852H178.156L173.891 267.986H170.295ZM188.643 252.578C190.347 252.578 191.673 253.02 192.621 253.904C193.578 254.779 194.057 256.188 194.057 258.129V268H190.844V258.73C190.844 257.555 190.602 256.675 190.119 256.092C189.636 255.499 188.889 255.203 187.877 255.203C186.41 255.203 185.389 255.654 184.814 256.557C184.249 257.459 183.967 258.767 183.967 260.48V268H180.754V252.865H183.256L183.707 254.916H183.885C184.213 254.387 184.618 253.954 185.102 253.617C185.594 253.271 186.141 253.011 186.742 252.838C187.353 252.665 187.986 252.578 188.643 252.578ZM201.781 268H198.555V246.727H201.781V268ZM219.773 260.398C219.773 261.656 219.609 262.773 219.281 263.748C218.953 264.723 218.475 265.548 217.846 266.223C217.217 266.888 216.46 267.398 215.576 267.754C214.692 268.1 213.694 268.273 212.582 268.273C211.543 268.273 210.59 268.1 209.725 267.754C208.859 267.398 208.107 266.888 207.469 266.223C206.84 265.548 206.352 264.723 206.006 263.748C205.66 262.773 205.486 261.656 205.486 260.398C205.486 258.73 205.773 257.318 206.348 256.16C206.931 254.993 207.76 254.105 208.836 253.494C209.911 252.883 211.192 252.578 212.678 252.578C214.072 252.578 215.303 252.883 216.369 253.494C217.436 254.105 218.27 254.993 218.871 256.16C219.473 257.327 219.773 258.74 219.773 260.398ZM208.795 260.398C208.795 261.501 208.927 262.445 209.191 263.229C209.465 264.012 209.884 264.614 210.449 265.033C211.014 265.443 211.743 265.648 212.637 265.648C213.53 265.648 214.259 265.443 214.824 265.033C215.389 264.614 215.804 264.012 216.068 263.229C216.333 262.445 216.465 261.501 216.465 260.398C216.465 259.296 216.333 258.361 216.068 257.596C215.804 256.821 215.389 256.233 214.824 255.832C214.259 255.422 213.525 255.217 212.623 255.217C211.292 255.217 210.322 255.663 209.711 256.557C209.1 257.45 208.795 258.73 208.795 260.398ZM229.398 252.578C231.312 252.578 232.757 253.002 233.732 253.85C234.717 254.697 235.209 256.019 235.209 257.814V268H232.926L232.311 265.854H232.201C231.773 266.4 231.331 266.852 230.875 267.207C230.419 267.562 229.891 267.827 229.289 268C228.697 268.182 227.972 268.273 227.115 268.273C226.213 268.273 225.406 268.109 224.695 267.781C223.984 267.444 223.424 266.934 223.014 266.25C222.604 265.566 222.398 264.701 222.398 263.652C222.398 262.094 222.977 260.923 224.135 260.139C225.301 259.355 227.061 258.922 229.412 258.84L232.037 258.744V257.951C232.037 256.903 231.791 256.156 231.299 255.709C230.816 255.262 230.132 255.039 229.248 255.039C228.492 255.039 227.758 255.148 227.047 255.367C226.336 255.586 225.643 255.855 224.969 256.174L223.93 253.904C224.668 253.512 225.507 253.193 226.445 252.947C227.393 252.701 228.378 252.578 229.398 252.578ZM232.023 260.768L230.068 260.836C228.464 260.891 227.339 261.164 226.691 261.656C226.044 262.148 225.721 262.823 225.721 263.68C225.721 264.427 225.944 264.974 226.391 265.32C226.837 265.658 227.425 265.826 228.154 265.826C229.266 265.826 230.187 265.512 230.916 264.883C231.654 264.245 232.023 263.311 232.023 262.08V260.768ZM244.793 268.273C242.988 268.273 241.539 267.617 240.445 266.305C239.361 264.983 238.818 263.037 238.818 260.467C238.818 257.869 239.37 255.905 240.473 254.574C241.585 253.243 243.048 252.578 244.861 252.578C245.627 252.578 246.297 252.683 246.871 252.893C247.445 253.093 247.938 253.367 248.348 253.713C248.767 254.059 249.122 254.447 249.414 254.875H249.564C249.519 254.592 249.464 254.187 249.4 253.658C249.346 253.12 249.318 252.624 249.318 252.168V246.727H252.545V268H250.029L249.455 265.936H249.318C249.045 266.373 248.699 266.77 248.279 267.125C247.869 267.471 247.377 267.749 246.803 267.959C246.238 268.169 245.568 268.273 244.793 268.273ZM245.695 265.662C247.072 265.662 248.042 265.266 248.607 264.473C249.173 263.68 249.464 262.49 249.482 260.904V260.48C249.482 258.785 249.209 257.486 248.662 256.584C248.115 255.673 247.117 255.217 245.668 255.217C244.51 255.217 243.626 255.686 243.016 256.625C242.414 257.555 242.113 258.854 242.113 260.521C242.113 262.189 242.414 263.465 243.016 264.35C243.626 265.225 244.52 265.662 245.695 265.662ZM277.141 268L275.186 262.449H267.543L265.588 268H262.129L269.566 247.93H273.203L280.627 268H277.141ZM274.338 259.633L272.438 254.164C272.365 253.927 272.26 253.594 272.123 253.166C271.986 252.729 271.85 252.286 271.713 251.84C271.576 251.384 271.462 251.001 271.371 250.691C271.28 251.065 271.166 251.484 271.029 251.949C270.902 252.405 270.774 252.833 270.646 253.234C270.528 253.635 270.437 253.945 270.373 254.164L268.459 259.633H274.338ZM290.703 252.578C292.499 252.578 293.939 253.234 295.023 254.547C296.117 255.859 296.664 257.81 296.664 260.398C296.664 262.112 296.409 263.557 295.898 264.732C295.397 265.899 294.691 266.783 293.779 267.385C292.877 267.977 291.824 268.273 290.621 268.273C289.855 268.273 289.19 268.173 288.625 267.973C288.06 267.772 287.577 267.512 287.176 267.193C286.775 266.865 286.438 266.51 286.164 266.127H285.973C286.018 266.492 286.059 266.897 286.096 267.344C286.141 267.781 286.164 268.182 286.164 268.547V274.713H282.938V252.865H285.562L286.014 254.957H286.164C286.447 254.529 286.788 254.132 287.189 253.768C287.6 253.403 288.092 253.116 288.666 252.906C289.249 252.688 289.928 252.578 290.703 252.578ZM289.842 255.203C288.958 255.203 288.247 255.381 287.709 255.736C287.18 256.083 286.793 256.607 286.547 257.309C286.31 258.01 286.182 258.89 286.164 259.947V260.398C286.164 261.52 286.278 262.472 286.506 263.256C286.743 264.031 287.13 264.623 287.668 265.033C288.215 265.434 288.953 265.635 289.883 265.635C290.667 265.635 291.314 265.421 291.824 264.992C292.344 264.564 292.731 263.953 292.986 263.16C293.242 262.367 293.369 261.433 293.369 260.357C293.369 258.726 293.077 257.459 292.494 256.557C291.92 255.654 291.036 255.203 289.842 255.203ZM308.148 252.578C309.944 252.578 311.384 253.234 312.469 254.547C313.562 255.859 314.109 257.81 314.109 260.398C314.109 262.112 313.854 263.557 313.344 264.732C312.842 265.899 312.136 266.783 311.225 267.385C310.322 267.977 309.27 268.273 308.066 268.273C307.301 268.273 306.635 268.173 306.07 267.973C305.505 267.772 305.022 267.512 304.621 267.193C304.22 266.865 303.883 266.51 303.609 266.127H303.418C303.464 266.492 303.505 266.897 303.541 267.344C303.587 267.781 303.609 268.182 303.609 268.547V274.713H300.383V252.865H303.008L303.459 254.957H303.609C303.892 254.529 304.234 254.132 304.635 253.768C305.045 253.403 305.537 253.116 306.111 252.906C306.695 252.688 307.374 252.578 308.148 252.578ZM307.287 255.203C306.403 255.203 305.692 255.381 305.154 255.736C304.626 256.083 304.238 256.607 303.992 257.309C303.755 258.01 303.628 258.89 303.609 259.947V260.398C303.609 261.52 303.723 262.472 303.951 263.256C304.188 264.031 304.576 264.623 305.113 265.033C305.66 265.434 306.398 265.635 307.328 265.635C308.112 265.635 308.759 265.421 309.27 264.992C309.789 264.564 310.176 263.953 310.432 263.16C310.687 262.367 310.814 261.433 310.814 260.357C310.814 258.726 310.523 257.459 309.939 256.557C309.365 255.654 308.481 255.203 307.287 255.203Z" fill="#242323"/>
<g filter="url(#filter1_d_0_5)">
<path d="M383 408C383 402.477 387.477 398 393 398H628C633.523 398 638 402.477 638 408V613C638 618.523 633.523 623 628 623H393C387.477 623 383 618.523 383 613V408Z" fill="#DC2C55"/>
</g>
<circle cx="504" cy="486" r="37" fill="white"/>
<path d="M510.655 492.562H508.077V497H503.653V492.562H494.513V489.412L503.902 475.584H508.077V489.046H510.655V492.562ZM503.653 489.046V485.413C503.653 485.071 503.658 484.666 503.668 484.197C503.688 483.729 503.707 483.26 503.727 482.791C503.746 482.322 503.766 481.907 503.785 481.546C503.814 481.175 503.834 480.916 503.844 480.77H503.727C503.541 481.17 503.346 481.561 503.141 481.941C502.936 482.312 502.696 482.703 502.423 483.113L498.497 489.046H503.653Z" fill="#242323"/>
<path d="M441.691 560.145H449.156V570.18C448.108 570.526 447.023 570.795 445.902 570.986C444.781 571.178 443.523 571.273 442.129 571.273C440.096 571.273 438.374 570.872 436.961 570.07C435.557 569.259 434.491 568.088 433.762 566.557C433.033 565.016 432.668 563.161 432.668 560.992C432.668 558.905 433.074 557.096 433.885 555.564C434.696 554.024 435.876 552.835 437.426 551.996C438.975 551.148 440.853 550.725 443.059 550.725C444.143 550.725 445.191 550.834 446.203 551.053C447.224 551.262 448.158 551.554 449.006 551.928L447.857 554.635C447.183 554.316 446.426 554.047 445.588 553.828C444.749 553.609 443.879 553.5 442.977 553.5C441.546 553.5 440.311 553.81 439.271 554.43C438.242 555.049 437.449 555.924 436.893 557.055C436.337 558.176 436.059 559.502 436.059 561.033C436.059 562.519 436.282 563.822 436.729 564.943C437.175 566.064 437.872 566.939 438.82 567.568C439.777 568.188 441.012 568.498 442.525 568.498C443.282 568.498 443.924 568.457 444.453 568.375C444.982 568.293 445.469 568.202 445.916 568.102V562.947H441.691V560.145ZM459.643 555.578C460.992 555.578 462.149 555.856 463.115 556.412C464.081 556.968 464.824 557.757 465.344 558.777C465.863 559.798 466.123 561.02 466.123 562.441V564.164H456.02C456.056 565.632 456.448 566.762 457.195 567.555C457.952 568.348 459.009 568.744 460.367 568.744C461.333 568.744 462.199 568.653 462.965 568.471C463.74 568.279 464.537 568.001 465.357 567.637V570.248C464.601 570.604 463.831 570.863 463.047 571.027C462.263 571.191 461.324 571.273 460.23 571.273C458.745 571.273 457.437 570.986 456.307 570.412C455.186 569.829 454.306 568.963 453.668 567.814C453.039 566.666 452.725 565.24 452.725 563.535C452.725 561.84 453.012 560.4 453.586 559.215C454.16 558.03 454.967 557.128 456.006 556.508C457.045 555.888 458.257 555.578 459.643 555.578ZM459.643 557.998C458.631 557.998 457.811 558.326 457.182 558.982C456.562 559.639 456.197 560.6 456.088 561.867H462.979C462.969 561.111 462.842 560.441 462.596 559.857C462.359 559.274 461.994 558.818 461.502 558.49C461.019 558.162 460.399 557.998 459.643 557.998ZM475.379 568.676C475.798 568.676 476.213 568.639 476.623 568.566C477.033 568.484 477.407 568.389 477.744 568.279V570.713C477.389 570.868 476.928 571 476.363 571.109C475.798 571.219 475.21 571.273 474.6 571.273C473.743 571.273 472.973 571.132 472.289 570.85C471.605 570.558 471.063 570.061 470.662 569.359C470.261 568.658 470.061 567.687 470.061 566.447V558.312H467.996V556.877L470.211 555.742L471.264 552.502H473.287V555.865H477.621V558.312H473.287V566.406C473.287 567.172 473.479 567.742 473.861 568.115C474.244 568.489 474.75 568.676 475.379 568.676ZM499.961 565.559C499.961 566.743 499.669 567.764 499.086 568.621C498.512 569.478 497.682 570.134 496.598 570.59C495.522 571.046 494.237 571.273 492.742 571.273C492.013 571.273 491.316 571.232 490.65 571.15C489.985 571.068 489.356 570.95 488.764 570.795C488.18 570.631 487.647 570.435 487.164 570.207V567.117C487.975 567.473 488.882 567.796 489.885 568.088C490.887 568.37 491.908 568.512 492.947 568.512C493.795 568.512 494.497 568.402 495.053 568.184C495.618 567.956 496.037 567.637 496.311 567.227C496.584 566.807 496.721 566.32 496.721 565.764C496.721 565.171 496.561 564.67 496.242 564.26C495.923 563.85 495.44 563.476 494.793 563.139C494.155 562.792 493.353 562.423 492.387 562.031C491.73 561.767 491.102 561.466 490.5 561.129C489.908 560.792 489.379 560.395 488.914 559.939C488.449 559.484 488.08 558.946 487.807 558.326C487.542 557.697 487.41 556.959 487.41 556.111C487.41 554.981 487.679 554.015 488.217 553.213C488.764 552.411 489.529 551.796 490.514 551.367C491.507 550.939 492.665 550.725 493.986 550.725C495.035 550.725 496.019 550.834 496.939 551.053C497.869 551.271 498.781 551.581 499.674 551.982L498.635 554.621C497.814 554.284 497.017 554.015 496.242 553.814C495.477 553.614 494.693 553.514 493.891 553.514C493.198 553.514 492.61 553.618 492.127 553.828C491.644 554.038 491.275 554.334 491.02 554.717C490.773 555.09 490.65 555.537 490.65 556.057C490.65 556.64 490.792 557.132 491.074 557.533C491.366 557.925 491.812 558.285 492.414 558.613C493.025 558.941 493.809 559.306 494.766 559.707C495.868 560.163 496.803 560.641 497.568 561.143C498.343 561.644 498.936 562.245 499.346 562.947C499.756 563.64 499.961 564.51 499.961 565.559ZM509.121 568.676C509.54 568.676 509.955 568.639 510.365 568.566C510.775 568.484 511.149 568.389 511.486 568.279V570.713C511.131 570.868 510.671 571 510.105 571.109C509.54 571.219 508.952 571.273 508.342 571.273C507.485 571.273 506.715 571.132 506.031 570.85C505.348 570.558 504.805 570.061 504.404 569.359C504.003 568.658 503.803 567.687 503.803 566.447V558.312H501.738V556.877L503.953 555.742L505.006 552.502H507.029V555.865H511.363V558.312H507.029V566.406C507.029 567.172 507.221 567.742 507.604 568.115C507.986 568.489 508.492 568.676 509.121 568.676ZM520.496 555.578C522.41 555.578 523.855 556.002 524.83 556.85C525.814 557.697 526.307 559.019 526.307 560.814V571H524.023L523.408 568.854H523.299C522.87 569.4 522.428 569.852 521.973 570.207C521.517 570.562 520.988 570.827 520.387 571C519.794 571.182 519.07 571.273 518.213 571.273C517.311 571.273 516.504 571.109 515.793 570.781C515.082 570.444 514.521 569.934 514.111 569.25C513.701 568.566 513.496 567.701 513.496 566.652C513.496 565.094 514.075 563.923 515.232 563.139C516.399 562.355 518.158 561.922 520.51 561.84L523.135 561.744V560.951C523.135 559.903 522.889 559.156 522.396 558.709C521.913 558.262 521.23 558.039 520.346 558.039C519.589 558.039 518.855 558.148 518.145 558.367C517.434 558.586 516.741 558.855 516.066 559.174L515.027 556.904C515.766 556.512 516.604 556.193 517.543 555.947C518.491 555.701 519.475 555.578 520.496 555.578ZM523.121 563.768L521.166 563.836C519.562 563.891 518.436 564.164 517.789 564.656C517.142 565.148 516.818 565.823 516.818 566.68C516.818 567.427 517.042 567.974 517.488 568.32C517.935 568.658 518.523 568.826 519.252 568.826C520.364 568.826 521.285 568.512 522.014 567.883C522.752 567.245 523.121 566.311 523.121 565.08V563.768ZM538.475 555.578C538.73 555.578 539.008 555.592 539.309 555.619C539.609 555.646 539.869 555.683 540.088 555.729L539.787 558.736C539.596 558.682 539.359 558.641 539.076 558.613C538.803 558.586 538.557 558.572 538.338 558.572C537.764 558.572 537.217 558.668 536.697 558.859C536.178 559.042 535.717 559.324 535.316 559.707C534.915 560.081 534.601 560.55 534.373 561.115C534.145 561.68 534.031 562.337 534.031 563.084V571H530.805V555.865H533.32L533.758 558.531H533.908C534.209 557.993 534.583 557.501 535.029 557.055C535.476 556.608 535.986 556.253 536.561 555.988C537.144 555.715 537.782 555.578 538.475 555.578ZM548.523 568.676C548.943 568.676 549.357 568.639 549.768 568.566C550.178 568.484 550.551 568.389 550.889 568.279V570.713C550.533 570.868 550.073 571 549.508 571.109C548.943 571.219 548.355 571.273 547.744 571.273C546.887 571.273 546.117 571.132 545.434 570.85C544.75 570.558 544.208 570.061 543.807 569.359C543.406 568.658 543.205 567.687 543.205 566.447V558.312H541.141V556.877L543.355 555.742L544.408 552.502H546.432V555.865H550.766V558.312H546.432V566.406C546.432 567.172 546.623 567.742 547.006 568.115C547.389 568.489 547.895 568.676 548.523 568.676ZM559.994 555.578C561.343 555.578 562.501 555.856 563.467 556.412C564.433 556.968 565.176 557.757 565.695 558.777C566.215 559.798 566.475 561.02 566.475 562.441V564.164H556.371C556.408 565.632 556.799 566.762 557.547 567.555C558.303 568.348 559.361 568.744 560.719 568.744C561.685 568.744 562.551 568.653 563.316 568.471C564.091 568.279 564.889 568.001 565.709 567.637V570.248C564.952 570.604 564.182 570.863 563.398 571.027C562.615 571.191 561.676 571.273 560.582 571.273C559.096 571.273 557.788 570.986 556.658 570.412C555.537 569.829 554.658 568.963 554.02 567.814C553.391 566.666 553.076 565.24 553.076 563.535C553.076 561.84 553.363 560.4 553.938 559.215C554.512 558.03 555.318 557.128 556.357 556.508C557.396 555.888 558.609 555.578 559.994 555.578ZM559.994 557.998C558.982 557.998 558.162 558.326 557.533 558.982C556.913 559.639 556.549 560.6 556.439 561.867H563.33C563.321 561.111 563.193 560.441 562.947 559.857C562.71 559.274 562.346 558.818 561.854 558.49C561.37 558.162 560.751 557.998 559.994 557.998ZM575.184 571.273C573.379 571.273 571.93 570.617 570.836 569.305C569.751 567.983 569.209 566.037 569.209 563.467C569.209 560.869 569.76 558.905 570.863 557.574C571.975 556.243 573.438 555.578 575.252 555.578C576.018 555.578 576.688 555.683 577.262 555.893C577.836 556.093 578.328 556.367 578.738 556.713C579.158 557.059 579.513 557.447 579.805 557.875H579.955C579.91 557.592 579.855 557.187 579.791 556.658C579.736 556.12 579.709 555.624 579.709 555.168V549.727H582.936V571H580.42L579.846 568.936H579.709C579.436 569.373 579.089 569.77 578.67 570.125C578.26 570.471 577.768 570.749 577.193 570.959C576.628 571.169 575.958 571.273 575.184 571.273ZM576.086 568.662C577.462 568.662 578.433 568.266 578.998 567.473C579.563 566.68 579.855 565.49 579.873 563.904V563.48C579.873 561.785 579.6 560.486 579.053 559.584C578.506 558.673 577.508 558.217 576.059 558.217C574.901 558.217 574.017 558.686 573.406 559.625C572.805 560.555 572.504 561.854 572.504 563.521C572.504 565.189 572.805 566.465 573.406 567.35C574.017 568.225 574.91 568.662 576.086 568.662Z" fill="white"/>
<g filter="url(#filter2_d_0_5)">
<path d="M95 359.025C95 354.041 99.0408 350 104.025 350L340.975 350C345.959 350 350 354.041 350 359.025V565.975C350 570.959 345.959 575 340.975 575H104.025C99.0408 575 95 570.959 95 565.975V359.025Z" fill="white"/>
</g>
<circle cx="216" cy="438" r="37" fill="#DC2C55"/>
<path d="M222.337 433.374C222.337 434.712 221.932 435.85 221.121 436.787C220.311 437.725 219.173 438.369 217.708 438.721V438.809C219.437 439.023 220.745 439.551 221.634 440.391C222.522 441.221 222.967 442.344 222.967 443.76C222.967 445.82 222.22 447.427 220.726 448.579C219.231 449.722 217.098 450.293 214.324 450.293C212 450.293 209.939 449.907 208.143 449.136V445.283C208.973 445.703 209.886 446.045 210.882 446.309C211.878 446.572 212.864 446.704 213.841 446.704C215.335 446.704 216.438 446.45 217.151 445.942C217.864 445.435 218.221 444.619 218.221 443.496C218.221 442.49 217.811 441.777 216.99 441.357C216.17 440.938 214.861 440.728 213.064 440.728H211.438V437.256H213.094C214.754 437.256 215.965 437.041 216.727 436.611C217.498 436.172 217.884 435.425 217.884 434.37C217.884 432.749 216.868 431.938 214.837 431.938C214.134 431.938 213.416 432.056 212.684 432.29C211.961 432.524 211.155 432.93 210.267 433.506L208.172 430.386C210.125 428.979 212.454 428.276 215.159 428.276C217.376 428.276 219.124 428.726 220.403 429.624C221.692 430.522 222.337 431.772 222.337 433.374Z" fill="white"/>
<path d="M198.803 503.012C201.382 503.012 203.264 503.54 204.449 504.598C205.634 505.655 206.227 507.136 206.227 509.041C206.227 509.907 206.09 510.732 205.816 511.516C205.552 512.29 205.115 512.979 204.504 513.58C203.893 514.173 203.087 514.642 202.084 514.988C201.09 515.335 199.865 515.508 198.406 515.508H196.273V523H192.992V503.012H198.803ZM198.584 505.732H196.273V512.773H198.064C199.094 512.773 199.969 512.655 200.689 512.418C201.41 512.172 201.956 511.785 202.33 511.256C202.704 510.727 202.891 510.03 202.891 509.164C202.891 508.007 202.54 507.145 201.838 506.58C201.145 506.015 200.061 505.732 198.584 505.732ZM215.824 507.578C217.738 507.578 219.183 508.002 220.158 508.85C221.143 509.697 221.635 511.019 221.635 512.814V523H219.352L218.736 520.854H218.627C218.199 521.4 217.757 521.852 217.301 522.207C216.845 522.562 216.316 522.827 215.715 523C215.122 523.182 214.398 523.273 213.541 523.273C212.639 523.273 211.832 523.109 211.121 522.781C210.41 522.444 209.85 521.934 209.439 521.25C209.029 520.566 208.824 519.701 208.824 518.652C208.824 517.094 209.403 515.923 210.561 515.139C211.727 514.355 213.486 513.922 215.838 513.84L218.463 513.744V512.951C218.463 511.903 218.217 511.156 217.725 510.709C217.242 510.262 216.558 510.039 215.674 510.039C214.917 510.039 214.184 510.148 213.473 510.367C212.762 510.586 212.069 510.855 211.395 511.174L210.355 508.904C211.094 508.512 211.932 508.193 212.871 507.947C213.819 507.701 214.803 507.578 215.824 507.578ZM218.449 515.768L216.494 515.836C214.89 515.891 213.764 516.164 213.117 516.656C212.47 517.148 212.146 517.823 212.146 518.68C212.146 519.427 212.37 519.974 212.816 520.32C213.263 520.658 213.851 520.826 214.58 520.826C215.692 520.826 216.613 520.512 217.342 519.883C218.08 519.245 218.449 518.311 218.449 517.08V515.768ZM223.85 507.865H227.35L230.453 516.506C230.59 516.898 230.713 517.285 230.822 517.668C230.941 518.042 231.041 518.411 231.123 518.775C231.214 519.14 231.287 519.505 231.342 519.869H231.424C231.515 519.395 231.643 518.867 231.807 518.283C231.98 517.691 232.171 517.098 232.381 516.506L235.361 507.865H238.82L232.326 525.078C231.952 526.062 231.492 526.901 230.945 527.594C230.408 528.296 229.77 528.824 229.031 529.18C228.293 529.544 227.45 529.727 226.502 529.727C226.046 529.727 225.65 529.699 225.312 529.645C224.975 529.599 224.688 529.549 224.451 529.494V526.924C224.643 526.969 224.884 527.01 225.176 527.047C225.467 527.083 225.768 527.102 226.078 527.102C226.652 527.102 227.149 526.988 227.568 526.76C227.988 526.532 228.343 526.208 228.635 525.789C228.926 525.379 229.168 524.91 229.359 524.381L229.893 522.959L223.85 507.865Z" fill="#242323"/>
<g filter="url(#filter3_d_0_5)">
<path d="M380 135C380 129.477 384.477 125 390 125H625C630.523 125 635 129.477 635 135V340C635 345.523 630.523 350 625 350H390C384.477 350 380 345.523 380 340V135Z" fill="#FEFEFE"/>
</g>
<circle cx="501" cy="214" r="37" fill="#DC2C55"/>
<path d="M508.172 225H493.201V221.851L498.577 216.416C499.661 215.303 500.53 214.375 501.185 213.633C501.849 212.881 502.327 212.197 502.62 211.582C502.923 210.967 503.074 210.308 503.074 209.604C503.074 208.755 502.835 208.12 502.356 207.7C501.888 207.271 501.258 207.056 500.467 207.056C499.637 207.056 498.831 207.246 498.05 207.627C497.269 208.008 496.453 208.55 495.604 209.253L493.143 206.338C493.758 205.811 494.407 205.312 495.091 204.844C495.784 204.375 496.585 203.999 497.493 203.716C498.411 203.423 499.51 203.276 500.789 203.276C502.195 203.276 503.401 203.53 504.407 204.038C505.423 204.546 506.204 205.239 506.751 206.118C507.298 206.987 507.571 207.974 507.571 209.077C507.571 210.259 507.337 211.338 506.868 212.314C506.399 213.291 505.716 214.258 504.817 215.215C503.929 216.172 502.854 217.231 501.595 218.394L498.841 220.986V221.191H508.172V225Z" fill="white"/>
<path d="M432.164 293.559C432.164 294.743 431.872 295.764 431.289 296.621C430.715 297.478 429.885 298.134 428.801 298.59C427.725 299.046 426.44 299.273 424.945 299.273C424.216 299.273 423.519 299.232 422.854 299.15C422.188 299.068 421.559 298.95 420.967 298.795C420.383 298.631 419.85 298.435 419.367 298.207V295.117C420.178 295.473 421.085 295.796 422.088 296.088C423.09 296.37 424.111 296.512 425.15 296.512C425.998 296.512 426.7 296.402 427.256 296.184C427.821 295.956 428.24 295.637 428.514 295.227C428.787 294.807 428.924 294.32 428.924 293.764C428.924 293.171 428.764 292.67 428.445 292.26C428.126 291.85 427.643 291.476 426.996 291.139C426.358 290.792 425.556 290.423 424.59 290.031C423.934 289.767 423.305 289.466 422.703 289.129C422.111 288.792 421.582 288.395 421.117 287.939C420.652 287.484 420.283 286.946 420.01 286.326C419.745 285.697 419.613 284.959 419.613 284.111C419.613 282.981 419.882 282.015 420.42 281.213C420.967 280.411 421.732 279.796 422.717 279.367C423.71 278.939 424.868 278.725 426.189 278.725C427.238 278.725 428.222 278.834 429.143 279.053C430.072 279.271 430.984 279.581 431.877 279.982L430.838 282.621C430.018 282.284 429.22 282.015 428.445 281.814C427.68 281.614 426.896 281.514 426.094 281.514C425.401 281.514 424.813 281.618 424.33 281.828C423.847 282.038 423.478 282.334 423.223 282.717C422.977 283.09 422.854 283.537 422.854 284.057C422.854 284.64 422.995 285.132 423.277 285.533C423.569 285.925 424.016 286.285 424.617 286.613C425.228 286.941 426.012 287.306 426.969 287.707C428.072 288.163 429.006 288.641 429.771 289.143C430.546 289.644 431.139 290.245 431.549 290.947C431.959 291.64 432.164 292.51 432.164 293.559ZM441.721 283.578C443.07 283.578 444.227 283.856 445.193 284.412C446.16 284.968 446.902 285.757 447.422 286.777C447.941 287.798 448.201 289.02 448.201 290.441V292.164H438.098C438.134 293.632 438.526 294.762 439.273 295.555C440.03 296.348 441.087 296.744 442.445 296.744C443.411 296.744 444.277 296.653 445.043 296.471C445.818 296.279 446.615 296.001 447.436 295.637V298.248C446.679 298.604 445.909 298.863 445.125 299.027C444.341 299.191 443.402 299.273 442.309 299.273C440.823 299.273 439.515 298.986 438.385 298.412C437.264 297.829 436.384 296.963 435.746 295.814C435.117 294.666 434.803 293.24 434.803 291.535C434.803 289.84 435.09 288.4 435.664 287.215C436.238 286.03 437.045 285.128 438.084 284.508C439.123 283.888 440.335 283.578 441.721 283.578ZM441.721 285.998C440.709 285.998 439.889 286.326 439.26 286.982C438.64 287.639 438.275 288.6 438.166 289.867H445.057C445.048 289.111 444.92 288.441 444.674 287.857C444.437 287.274 444.072 286.818 443.58 286.49C443.097 286.162 442.477 285.998 441.721 285.998ZM455.051 299H451.824V277.727H455.051V299ZM465.674 283.578C467.023 283.578 468.18 283.856 469.146 284.412C470.113 284.968 470.855 285.757 471.375 286.777C471.895 287.798 472.154 289.02 472.154 290.441V292.164H462.051C462.087 293.632 462.479 294.762 463.227 295.555C463.983 296.348 465.04 296.744 466.398 296.744C467.365 296.744 468.23 296.653 468.996 296.471C469.771 296.279 470.568 296.001 471.389 295.637V298.248C470.632 298.604 469.862 298.863 469.078 299.027C468.294 299.191 467.355 299.273 466.262 299.273C464.776 299.273 463.468 298.986 462.338 298.412C461.217 297.829 460.337 296.963 459.699 295.814C459.07 294.666 458.756 293.24 458.756 291.535C458.756 289.84 459.043 288.4 459.617 287.215C460.191 286.03 460.998 285.128 462.037 284.508C463.076 283.888 464.288 283.578 465.674 283.578ZM465.674 285.998C464.662 285.998 463.842 286.326 463.213 286.982C462.593 287.639 462.229 288.6 462.119 289.867H469.01C469.001 289.111 468.873 288.441 468.627 287.857C468.39 287.274 468.025 286.818 467.533 286.49C467.05 286.162 466.43 285.998 465.674 285.998ZM481.875 299.273C480.444 299.273 479.204 298.995 478.156 298.439C477.108 297.883 476.301 297.031 475.736 295.883C475.171 294.734 474.889 293.276 474.889 291.508C474.889 289.667 475.199 288.163 475.818 286.996C476.438 285.829 477.295 284.968 478.389 284.412C479.492 283.856 480.754 283.578 482.176 283.578C483.078 283.578 483.894 283.669 484.623 283.852C485.361 284.025 485.986 284.239 486.496 284.494L485.539 287.064C484.983 286.837 484.413 286.645 483.83 286.49C483.247 286.335 482.686 286.258 482.148 286.258C481.264 286.258 480.526 286.454 479.934 286.846C479.35 287.238 478.913 287.821 478.621 288.596C478.339 289.37 478.197 290.332 478.197 291.48C478.197 292.592 478.343 293.531 478.635 294.297C478.926 295.053 479.359 295.628 479.934 296.02C480.508 296.402 481.214 296.594 482.053 296.594C482.882 296.594 483.625 296.493 484.281 296.293C484.938 296.092 485.557 295.833 486.141 295.514V298.303C485.566 298.631 484.951 298.872 484.295 299.027C483.639 299.191 482.832 299.273 481.875 299.273ZM495.328 296.676C495.747 296.676 496.162 296.639 496.572 296.566C496.982 296.484 497.356 296.389 497.693 296.279V298.713C497.338 298.868 496.878 299 496.312 299.109C495.747 299.219 495.16 299.273 494.549 299.273C493.692 299.273 492.922 299.132 492.238 298.85C491.555 298.558 491.012 298.061 490.611 297.359C490.21 296.658 490.01 295.687 490.01 294.447V286.312H487.945V284.877L490.16 283.742L491.213 280.502H493.236V283.865H497.57V286.312H493.236V294.406C493.236 295.172 493.428 295.742 493.811 296.115C494.193 296.489 494.699 296.676 495.328 296.676ZM514.182 279.012C516.761 279.012 518.643 279.54 519.828 280.598C521.013 281.655 521.605 283.136 521.605 285.041C521.605 285.907 521.469 286.732 521.195 287.516C520.931 288.29 520.493 288.979 519.883 289.58C519.272 290.173 518.465 290.642 517.463 290.988C516.469 291.335 515.243 291.508 513.785 291.508H511.652V299H508.371V279.012H514.182ZM513.963 281.732H511.652V288.773H513.443C514.473 288.773 515.348 288.655 516.068 288.418C516.788 288.172 517.335 287.785 517.709 287.256C518.083 286.727 518.27 286.03 518.27 285.164C518.27 284.007 517.919 283.145 517.217 282.58C516.524 282.015 515.439 281.732 513.963 281.732ZM528.496 299H525.27V277.727H528.496V299ZM539.023 283.578C540.938 283.578 542.382 284.002 543.357 284.85C544.342 285.697 544.834 287.019 544.834 288.814V299H542.551L541.936 296.854H541.826C541.398 297.4 540.956 297.852 540.5 298.207C540.044 298.562 539.516 298.827 538.914 299C538.322 299.182 537.597 299.273 536.74 299.273C535.838 299.273 535.031 299.109 534.32 298.781C533.609 298.444 533.049 297.934 532.639 297.25C532.229 296.566 532.023 295.701 532.023 294.652C532.023 293.094 532.602 291.923 533.76 291.139C534.926 290.355 536.686 289.922 539.037 289.84L541.662 289.744V288.951C541.662 287.903 541.416 287.156 540.924 286.709C540.441 286.262 539.757 286.039 538.873 286.039C538.117 286.039 537.383 286.148 536.672 286.367C535.961 286.586 535.268 286.855 534.594 287.174L533.555 284.904C534.293 284.512 535.132 284.193 536.07 283.947C537.018 283.701 538.003 283.578 539.023 283.578ZM541.648 291.768L539.693 291.836C538.089 291.891 536.964 292.164 536.316 292.656C535.669 293.148 535.346 293.823 535.346 294.68C535.346 295.427 535.569 295.974 536.016 296.32C536.462 296.658 537.05 296.826 537.779 296.826C538.891 296.826 539.812 296.512 540.541 295.883C541.279 295.245 541.648 294.311 541.648 293.08V291.768ZM557.221 283.578C558.925 283.578 560.251 284.02 561.199 284.904C562.156 285.779 562.635 287.188 562.635 289.129V299H559.422V289.73C559.422 288.555 559.18 287.675 558.697 287.092C558.214 286.499 557.467 286.203 556.455 286.203C554.988 286.203 553.967 286.654 553.393 287.557C552.827 288.459 552.545 289.767 552.545 291.48V299H549.332V283.865H551.834L552.285 285.916H552.463C552.791 285.387 553.197 284.954 553.68 284.617C554.172 284.271 554.719 284.011 555.32 283.838C555.931 283.665 556.564 283.578 557.221 283.578Z" fill="#242323"/>
<defs>
<filter id="filter0_d_0_5" x="0" y="0" width="455" height="425" filterUnits="userSpaceOnUse" color-interpolation-filters="sRGB">
<feFlood flood-opacity="0" result="BackgroundImageFix"/>
<feColorMatrix in="SourceAlpha" type="matrix" values="0 0 0 0 0 0 0 0 0 0 0 0 0 0 0 0 0 0 127 0" result="hardAlpha"/>
<feOffset dx="5" dy="5"/>
<feGaussianBlur stdDeviation="50"/>
<feColorMatrix type="matrix" values="0 0 0 0 0.341176 0 0 0 0 0.345098 0 0 0 0 0.34902 0 0 0 0.1 0"/>
<feBlend mode="normal" in2="BackgroundImageFix" result="effect1_dropShadow_0_5"/>
<feBlend mode="normal" in="SourceGraphic" in2="effect1_dropShadow_0_5" result="shape"/>
</filter>
<filter id="filter1_d_0_5" x="341" y="356" width="355" height="325" filterUnits="userSpaceOnUse" color-interpolation-filters="sRGB">
<feFlood flood-opacity="0" result="BackgroundImageFix"/>
<feColorMatrix in="SourceAlpha" type="matrix" values="0 0 0 0 0 0 0 0 0 0 0 0 0 0 0 0 0 0 127 0" result="hardAlpha"/>
<feOffset dx="8" dy="8"/>
<feGaussianBlur stdDeviation="25"/>
<feColorMatrix type="matrix" values="0 0 0 0 0.862745 0 0 0 0 0.172549 0 0 0 0 0.333333 0 0 0 0.3 0"/>
<feBlend mode="normal" in2="BackgroundImageFix" result="effect1_dropShadow_0_5"/>
<feBlend mode="normal" in="SourceGraphic" in2="effect1_dropShadow_0_5" result="shape"/>
</filter>
<filter id="filter2_d_0_5" x="15" y="275" width="415" height="385" filterUnits="userSpaceOnUse" color-interpolation-filters="sRGB">
<feFlood flood-opacity="0" result="BackgroundImageFix"/>
<feColorMatrix in="SourceAlpha" type="matrix" values="0 0 0 0 0 0 0 0 0 0 0 0 0 0 0 0 0 0 127 0" result="hardAlpha"/>
<feOffset dy="5"/>
<feGaussianBlur stdDeviation="40"/>
<feColorMatrix type="matrix" values="0 0 0 0 0.341176 0 0 0 0 0.345098 0 0 0 0 0.34902 0 0 0 0.1 0"/>
<feBlend mode="normal" in2="BackgroundImageFix" result="effect1_dropShadow_0_5"/>
<feBlend mode="normal" in="SourceGraphic" in2="effect1_dropShadow_0_5" result="shape"/>
</filter>
<filter id="filter3_d_0_5" x="285" y="30" width="455" height="425" filterUnits="userSpaceOnUse" color-interpolation-filters="sRGB">
<feFlood flood-opacity="0" result="BackgroundImageFix"/>
<feColorMatrix in="SourceAlpha" type="matrix" values="0 0 0 0 0 0 0 0 0 0 0 0 0 0 0 0 0 0 127 0" result="hardAlpha"/>
<feOffset dx="5" dy="5"/>
<feGaussianBlur stdDeviation="50"/>
<feColorMatrix type="matrix" values="0 0 0 0 0.341176 0 0 0 0 0.345098 0 0 0 0 0.34902 0 0 0 0.1 0"/>
<feBlend mode="normal" in2="BackgroundImageFix" result="effect1_dropShadow_0_5"/>
<feBlend mode="normal" in="SourceGraphic" in2="effect1_dropShadow_0_5" result="shape"/>
</filter>
</defs>
</svg>
