<svg width="1026" height="527" viewBox="0 0 1026 527" fill="none" xmlns="http://www.w3.org/2000/svg">
<path d="M1001.74 286.984C990.442 282.559 972.842 277.472 957.675 274.873C942.53 272.177 930.09 271.716 929.864 272.68C929.593 273.746 941.447 276.081 955.762 280.016C970.128 283.868 986.836 289.601 997.838 293.903C1006.52 297.224 1011.38 299.106 1014.3 299.883C1013.16 300.345 1012 300.792 1010.84 301.239C1007.86 302.309 1004.97 303.354 1002.24 304.357C996.71 306.312 991.698 308.107 987.521 309.678C979.162 312.799 974.082 315.063 974.319 315.858C974.556 316.653 980.094 315.824 988.825 313.733C993.188 312.677 998.364 311.312 1004.05 309.607C1006.9 308.755 1009.89 307.817 1012.99 306.76C1014.55 306.231 1016.13 305.648 1017.77 304.983C1018.77 304.558 1023.36 302.83 1023.36 299.827C1023.38 299.46 1023.45 299.101 1023.43 298.746L1023.35 297.818C1023.32 297.352 1023.23 296.993 1023.16 296.581C1023.02 295.783 1022.87 295.033 1022.68 294.317C1022.33 292.851 1021.92 291.472 1021.5 290.114C1020.66 287.426 1019.74 284.873 1018.83 282.474C1016.99 277.682 1015.13 273.459 1013.46 269.952C1010.11 262.946 1007.46 258.844 1006.56 259.176C1005.66 259.509 1006.63 264.218 1008.77 271.593C1009.88 275.272 1011.19 279.619 1012.66 284.466C1013.38 286.871 1014.15 289.397 1014.87 292.004C1014.95 292.278 1015.02 292.573 1015.1 292.847C1012.35 291.348 1008.13 289.428 1001.74 286.984Z" fill="#1F3B24"/>
<path d="M918.891 271.464C919.173 270.168 915.572 268.739 910.819 268.432C906.078 268.076 896.595 268.9 896.471 270.243C896.352 271.517 905.412 272.817 910.029 273.161C914.658 273.456 918.615 272.78 918.891 271.464Z" fill="#1F3B24"/>
<path d="M885.227 270.275C885.289 269.242 881.276 268.442 876.269 268.722C871.245 268.939 861.413 270.715 861.503 271.775C861.577 272.772 871.285 272.7 876.219 272.508C881.107 272.237 885.142 271.314 885.227 270.275Z" fill="#1F3B24"/>
<path d="M852.924 272.809C852.862 272.035 848.696 271.932 843.655 272.808C838.592 273.6 828.878 276.361 829.065 277.147C829.234 277.869 839.072 276.385 844.04 275.596C848.995 274.765 852.992 273.604 852.924 272.809Z" fill="#1F3B24"/>
<path d="M810.517 283.154C815.354 281.61 819.249 280.16 819.107 279.633C818.978 279.148 814.823 279.81 809.918 281.372C807.463 282.143 803.873 283.466 800.978 284.762C798.077 286.036 795.864 287.261 795.977 287.502C796.107 287.716 798.483 286.921 801.475 285.984C805.939 284.584 808.953 283.641 810.517 283.154Z" fill="#1F3B24"/>
<path fill-rule="evenodd" clip-rule="evenodd" d="M114.02 473.855C90.2138 474.951 44.503 485.019 1.50514 498.638C-1.9622 499.736 -6.53012 501.184 -8.64579 501.855C-37.1746 510.907 -52.5177 516.616 -63.2574 522.174C-67.4488 524.344 -67.8088 524.606 -67.6979 525.417C-67.5359 526.6 -66.854 526.417 -59.0767 523.107C-51.0288 519.683 -43.8155 517.196 -24.0325 511.026C42.0864 490.405 72.9688 482.845 107.609 478.802C114.397 478.009 125.24 478.147 125.24 479.026C125.24 480.2 118.439 484.203 102.694 492.297C83.3236 502.256 71.5316 508.861 70.4872 510.339C68.7028 512.865 70.6655 514.687 74.9124 514.449C77.3392 514.312 77.8904 514.209 89.0169 511.806C120.962 504.905 141.379 501.403 169.049 498.078C211.186 493.013 238.034 491.144 288.509 489.763C306.646 489.267 307.584 489.198 310.932 488.112C312.222 487.693 313.764 487.284 314.357 487.202C315.748 487.012 315.731 486.767 314.314 486.587C313.697 486.509 312.279 486.134 311.162 485.755C308.409 484.819 306.584 484.77 290.86 485.211C238.149 486.687 210.414 488.576 170.224 493.425C149.088 495.975 139.669 497.361 124.278 500.185C113.756 502.115 85.9835 507.735 82.0931 508.721C79.9703 509.259 89.1846 504.184 105.369 495.903C125.842 485.428 129.917 482.582 129.936 478.755C129.958 474.439 126.237 473.294 114.02 473.855Z" fill="#00634B"/>
<path fill-rule="evenodd" clip-rule="evenodd" d="M754.205 144.583C777.015 145.133 800.325 144.033 822.135 151.833C823.435 152.293 824.865 151.623 825.335 150.323C825.795 149.023 825.125 147.593 823.825 147.123C801.505 139.143 777.665 140.143 754.325 139.583C752.945 139.543 751.795 140.643 751.765 142.023C751.725 143.403 752.825 144.543 754.205 144.583Z" fill="#00634B"/>
<path fill-rule="evenodd" clip-rule="evenodd" d="M752.155 111.466C759.265 104.924 767.025 100.023 776.405 97.5936C777.745 97.2476 778.545 95.8826 778.205 94.5466C777.855 93.2106 776.485 92.4076 775.155 92.7536C764.955 95.3936 756.505 100.676 748.775 107.785C747.755 108.719 747.685 110.302 748.625 111.318C749.555 112.333 751.145 112.4 752.155 111.466Z" fill="#00634B"/>
<path fill-rule="evenodd" clip-rule="evenodd" d="M620.025 24.8766C618.085 27.1596 616.345 29.6196 614.865 32.2386C614.205 33.4046 613.045 35.8826 612.865 38.0076C612.665 40.2716 613.435 42.1816 615.415 43.1876C618.045 44.5216 620.145 44.3826 621.765 43.5756C623.325 42.8006 624.545 41.2776 625.315 39.2356C626.785 35.3326 626.565 29.3676 625.795 25.9636C627.865 23.8276 630.135 21.8906 632.565 20.1686C650.665 7.34356 677.215 12.0726 697.645 31.2486C704.795 37.9626 708.235 52.0626 710.025 67.2756C712.815 90.9626 711.225 117.419 711.005 125.17C710.955 127.084 711.135 128.22 711.235 128.447C711.705 129.563 712.535 129.853 713.115 129.963C713.955 130.113 714.625 129.953 715.165 129.673C715.895 129.289 716.495 128.613 716.775 127.57C716.925 126.994 716.965 126.192 716.945 125.337C716.925 124.744 716.805 124.096 716.925 123.671C717.705 120.949 718.645 118.291 719.565 115.614C722.635 106.615 726.605 98.1816 731.015 89.7586C745.025 62.9946 758.575 34.7156 781.545 14.3246C782.575 13.4096 782.675 11.8276 781.755 10.7956C780.845 9.76358 779.265 9.66955 778.225 10.5856C754.795 31.3796 740.875 60.1456 726.585 87.4396C722.835 94.6046 719.395 101.78 716.535 109.285C716.825 96.0086 716.715 77.6316 714.285 61.3716C712.125 46.9106 708.015 34.1306 701.065 27.6036C678.685 6.59656 649.495 2.03958 629.675 16.0896C627.555 17.5936 625.535 19.2476 623.655 21.0416C613.285 2.31661 591.085 -5.18844 571.465 3.76756C570.205 4.34056 569.655 5.82457 570.225 7.07957C570.805 8.33457 572.285 8.8886 573.545 8.3156C591.225 0.245596 611.275 7.44757 620.025 24.8766ZM621.475 31.1456C620.665 32.2896 619.915 33.4756 619.215 34.7016C618.845 35.3596 618.205 36.6246 617.935 37.8626C617.875 38.1526 617.865 38.6066 617.865 38.8166C618.555 39.1566 619.095 39.3206 619.535 39.0996C620.085 38.8276 620.365 38.1876 620.635 37.4726C621.315 35.6786 621.535 33.3006 621.475 31.1456Z" fill="#00634B"/>
</svg>
